PathFileType	4	(X/Y/Z)	C:\Users\°ÂÌØÂü\Desktop\20210112\bx_y_10_501-Unnamed.trc
DataRate	CameraRate	NumFrames	NumMarkers	Units	OrigDataRate	OrigDataStartFrame	OrigNumFrames
50.00	50.00	       9	0	mm	50.00	202	       537
Frame#	Time	
		

202	4.020	-393.93143	255.56769	1151.14880	-824.72760	74.11687	560.38928	-971.61859	87.25412	1090.95837	-387.57489	-56.45430	1146.35217	-864.97321	280.78656	853.67822	-796.91046	-12.63293	791.03687	-876.53876	-73.63430	848.10187	-799.71802	212.10306	794.73950							-784.36627	12.21244	521.49762	-860.33008	248.69450	555.00842	-876.66656	261.03958	475.04877	-795.73950	207.21802	530.60217	-730.70416	70.30685	221.47943	-664.97333	-68.57501	160.63673	-724.26068	158.38910	223.36830	-777.92139	228.13875	199.55219	-882.42694	296.08252	144.74060	-677.69684	52.47073	163.77284	-605.41187	19.47198	167.49792	-678.57697	176.10446	163.55109	-598.17236	222.12067	173.27921	-665.80316	299.27875	159.19890	-627.90863	306.38318	161.01062	-562.85663	258.88287	164.54436	-528.19891	304.05588	146.22949	-214.45123	97.68793	1366.88623	-887.29218	-63.40864	693.53375	-889.19006	286.52161	722.53412	-517.89020	-72.61646	142.79555	-563.45288	-37.33134	163.24393	-801.19360	178.34540	180.85365	-797.76221	50.86083	172.92203				-866.43542	-42.21132	462.67700	-774.72052	-12.03726	199.40826	-876.01434	-78.60468	141.64003	-851.48163	-35.77142	598.92462	-847.94775	-31.33990	550.15729	-623.58514	-80.30976	156.81186	
203	4.040	-395.03867	255.87296	1153.17603	-825.03528	74.29565	560.18622	-972.23669	87.12234	1090.77026	-389.85217	-57.06807	1148.55396	-865.16736	280.60709	853.50293	-797.60223	-12.45514	790.75720	-876.74835	-74.35211	848.73975	-799.74731	212.05994	794.82422							-784.51337	12.09690	521.61987	-860.88885	248.51967	554.90509	-876.86090	261.22687	475.25446	-796.04553	206.96606	530.76123	-730.73541	70.24621	221.62476	-664.83759	-68.59127	160.78577	-724.16187	158.25113	223.42206	-777.97797	228.26720	199.69017	-882.47290	296.27444	144.85796	-677.82635	52.59544	163.85565	-605.35895	19.37034	167.63824	-678.41272	176.08607	163.40491	-597.74847	222.03923	173.40598	-665.67072	299.24725	159.10686	-627.81488	306.30386	160.91550	-562.90704	258.69693	164.71143	-528.14691	304.25464	146.41547	-215.59911	98.82087	1368.86487	-888.37427	-62.93134	693.07239	-889.29785	286.42853	722.48938	-517.89557	-72.41290	142.78375	-563.60101	-37.21913	163.16811	-801.14221	178.23845	180.82896	-797.83118	50.79874	172.77728				-866.92804	-42.19788	462.54413	-774.69202	-12.12022	199.39673	-876.13934	-78.71100	141.67271	-852.04675	-35.46442	598.59686	-848.17499	-31.36164	550.10858	-623.56787	-80.27030	156.87814	
204	4.060	-396.79498	255.77841	1155.51208	-825.24335	74.44617	560.20538	-972.56085	87.02425	1090.54138				-864.78992	280.31888	853.19220	-797.86340	-12.76658	790.77185	-876.74835	-74.35211	848.73975	-799.68109	211.49930	794.56488							-784.77814	11.65683	521.48254	-860.59662	248.16284	554.90143	-876.82330	260.87671	474.97745	-795.56183	207.01839	531.11572	-730.87091	70.36203	221.73793	-664.92780	-68.64673	160.89241	-724.10004	158.07635	223.33711	-777.90100	227.98720	199.51050	-882.44482	295.90137	144.46693	-677.68542	52.68069	164.00148	-605.47888	19.40217	167.67473	-678.27032	176.01205	163.56386	-597.72644	222.34796	173.63318	-665.67072	299.24725	159.10686	-627.73669	306.16275	160.84938	-562.89551	258.89554	164.59987	-528.14282	304.09833	146.35799	-216.57436	99.36127	1371.12280	-888.37427	-62.93134	693.07239	-889.17944	286.34052	722.42712	-517.90973	-72.45013	142.73221	-563.61584	-37.21159	163.21722	-801.31732	178.12366	180.85893	-798.03790	50.78006	173.06068				-867.15051	-42.25520	462.47684	-774.69202	-12.12022	199.39673	-876.18079	-78.60561	141.78276	-852.26703	-35.89833	598.69446	-847.90613	-31.95019	550.77399	-623.66425	-80.33982	156.89729	
205	4.080	-398.65863	255.53036	1158.07080				-972.72772	86.95551	1090.42432	-393.60727	-58.61633	1154.03296	-864.55115	280.07706	853.61652	-797.51276	-13.07418	791.19324	-876.74835	-74.35211	848.73975	-799.31854	211.34370	794.91974							-785.31952	12.36455	521.26953	-860.07611	247.45674	555.05353	-876.80145	260.50330	475.08795	-795.61517	206.47061	530.96405	-730.70441	70.46953	221.91223	-664.82275	-68.66270	160.77641	-724.12610	157.77937	223.21498	-777.81384	227.85558	199.46919	-882.52551	295.96750	144.58784	-677.68542	52.68069	164.00148	-605.37262	19.26143	167.52782	-678.27032	176.01205	163.56386	-597.53387	221.94051	173.47308	-665.53729	299.28888	159.33325	-627.73669	306.16275	160.84938	-562.94678	258.88815	164.71167	-528.12897	304.06912	146.42619	-217.57977	99.87652	1373.50269	-888.18555	-62.74239	692.69928	-888.70856	286.44421	722.94183	-517.96326	-72.45580	142.96991	-563.49805	-37.40595	163.29340	-800.92047	177.83368	181.00781	-797.76532	50.96580	173.03871				-867.03741	-42.42868	462.41049	-774.69202	-12.12022	199.39673	-876.13934	-78.71100	141.67271	-851.96790	-36.10546	599.06744	-848.79053	-31.48616	549.99744	-623.62262	-80.40151	156.87421	
206	4.100	-400.61478	256.03610	1160.81458	-876.92621	254.69359	613.11206	-972.73737	86.74808	1090.23608	-395.36389	-59.38436	1157.40112	-863.58038	279.80499	854.19189	-796.71777	-13.26223	791.41022	-876.07581	-74.91956	849.07672	-797.87817	210.59691	795.84601							-784.37286	11.70946	521.86511	-859.97662	247.38489	555.32922	-876.38354	260.50711	475.72357	-794.53387	206.49121	531.23285	-730.48920	70.58757	222.19260	-664.83759	-68.59127	160.78577	-723.65192	157.76364	223.34776	-777.58643	227.39969	199.33270	-882.50757	296.12427	144.73715	-677.55591	52.55599	163.91869	-605.42554	19.36306	167.38750	-678.27032	176.01205	163.56386	-597.73663	221.95895	173.19275	-665.25531	299.63864	159.85587	-627.73669	306.16275	160.84938	-562.98401	259.11398	164.47392	-528.06299	304.01428	146.46683	-218.32587	100.30653	1376.31567	-887.46051	-62.73058	692.49927	-887.71173	285.15970	723.05957	-517.95746	-72.45257	142.88190	-563.35199	-37.49353	163.18555	-800.69446	177.28392	181.01718	-797.69263	50.99820	173.21494				-866.59906	-42.34003	462.66330	-774.46210	-12.01057	199.76990	-876.13934	-78.71100	141.67271	-851.30334	-36.00197	599.05920	-848.16205	-31.39870	550.10217	-623.54346	-80.37145	156.78877	
207	4.120	-402.12659	256.31726	1164.97729	-876.77411	253.72528	612.43463	-972.65118	86.58543	1090.15076	-397.42126	-60.23303	1160.73022	-863.52637	279.24915	854.36768	-795.99927	-13.84757	791.72504	-875.49915	-75.20035	849.43933	-797.66766	210.47302	795.61713	-823.57373	73.76604	561.19586				-784.56952	11.93311	521.77069	-859.72339	247.29753	555.74524	-876.00336	259.94342	475.75464	-794.42639	206.47678	531.33319	-730.35364	70.47176	222.07944	-664.79889	-68.55250	160.86929	-723.49768	157.87570	223.11655	-777.58643	227.39969	199.33270	-882.40234	296.13617	144.76462	-677.55591	52.55599	163.91869	-605.23297	19.32942	167.38246	-678.27032	176.01205	163.56386	-597.90326	221.74229	173.06413	-665.10297	299.40234	159.79749	-627.66937	306.07852	160.89284	-562.99756	259.09467	164.53523	-528.12262	304.34552	146.59378	-218.98232	100.39848	1380.21472	-887.38184	-63.30809	693.51813	-887.38672	284.90677	723.48157	-518.09296	-72.62840	142.90504	-563.32727	-37.40321	163.21234	-800.74005	177.38899	181.06451	-797.87054	50.91748	173.41170				-866.14032	-42.38960	462.83475	-774.36121	-12.05415	199.88098	-876.18079	-78.60561	141.78276	-850.78540	-36.51781	599.29236	-846.51440	-32.35698	551.32562	-623.22382	-80.32217	157.12453	
208	4.140	-404.20081	256.63138	1168.00488	-875.95587	254.03168	613.13654	-972.38092	86.17587	1089.68616	-398.60449	-61.76356	1165.52014	-862.93555	278.72916	854.54089	-794.85297	-13.84377	791.60541	-874.59003	-74.60609	849.26929	-796.92480	210.22302	795.82959	-823.16663	73.38699	560.73425				-784.41864	11.82388	521.57629	-859.43427	246.95782	555.79370	-876.00336	259.94342	475.75464	-794.42639	206.47678	531.33319	-730.38458	70.24844	221.79199	-664.79889	-68.55250	160.86929	-723.68170	157.83453	223.30240	-777.72363	227.44600	199.41772	-882.48578	296.13718	144.66689	-677.55591	52.55599	163.91869	-605.16840	19.17855	167.27815	-678.30682	175.90245	163.46255	-597.72644	222.34796	173.63318	-665.54102	299.13461	159.67604	-627.76001	306.15375	161.01822	-562.98950	258.96631	164.58490	-528.11328	304.21881	146.43846	-219.92140	100.51812	1384.21143	-886.23151	-63.13702	693.21002	-886.96106	284.68411	723.66687	-518.12909	-72.21655	142.77977	-563.24402	-37.41145	163.15033	-800.79211	177.29819	180.93333	-797.64948	50.97847	173.21692				-865.83783	-42.74538	463.02084	-774.36121	-12.05415	199.88098	-876.05139	-78.44123	141.62697	-850.57324	-36.79495	599.31006	-846.21674	-32.55612	551.45770	-623.13220	-80.26717	157.01901	
209	4.160	-405.99808	256.62741	1172.64319	-875.29504	254.18791	613.49957	-972.08289	85.94328	1089.43689	-399.82556	-62.09520	1169.39331	-862.22968	278.25391	854.87384	-794.17963	-14.45387	792.08197	-873.32178	-74.53479	849.01770	-796.79340	209.99110	796.06348							-783.53851	11.59182	521.89807	-859.43427	246.95782	555.79370	-875.82031	259.80353	476.15253	-794.14404	206.28825	531.57910	-730.44849	70.42482	221.78709	-664.82275	-68.66270	160.77641	-723.78491	158.03415	223.51628	-778.11212	227.69688	199.63512	-882.45923	296.10852	144.73209	-677.55591	52.55599	163.91869	-605.35504	19.40945	167.35609	-678.43457	176.03044	163.71002	-597.94031	222.13342	173.39803	-665.74365	299.46671	159.42456	-627.88910	306.25204	161.25838	-563.05719	258.79968	164.54558	-528.10712	304.00507	146.28951	-221.45932	100.22354	1389.44373	-885.27887	-63.48618	693.63440	-886.32874	284.60104	724.24469	-518.06866	-72.40037	142.79404	-563.25262	-37.41406	163.13367	-801.07996	177.77046	180.91623	-797.65356	50.90593	173.17993				-865.61823	-42.98878	463.05493	-774.24304	-11.78756	199.76318	-876.13934	-78.71100	141.67271	-850.30243	-37.09978	599.36407	-845.94177	-32.66262	551.47247	-623.13220	-80.26717	157.01901	
210	4.180	-407.32144	257.54211	1177.34314	-875.57642	253.48340	613.47015	-971.63251	84.91839	1089.86218	-401.34674	-62.82705	1174.11768	-861.05115	278.05704	855.53375	-793.50641	-14.35290	792.34406	-872.29321	-75.11543	849.51807	-795.68689	209.16481	797.04675							-782.25793	10.54062	522.26740	-858.73035	247.02359	556.24799	-875.21820	259.72348	476.60788	-793.74481	206.24168	531.62616	-730.31067	70.35055	222.17978	-664.82275	-68.66270	160.77641	-723.67322	158.21681	223.10788	-778.12671	227.80949	199.57513	-882.49280	296.14606	144.68233	-677.61151	52.35587	163.69418	-605.23297	19.32942	167.38246	-678.43457	176.03044	163.71002	-597.55182	222.24467	173.80771	-665.80316	299.27875	159.19890	-627.82727	306.23798	160.97476	-563.04510	258.93381	164.66579	-528.05743	304.05692	146.47278	-223.16513	100.08474	1395.02856	-884.43903	-63.81667	693.88757	-885.12317	284.23926	724.43970	-518.01678	-72.41117	142.65385	-563.27625	-37.46189	163.11890	-801.20142	177.74535	180.89752	-797.65356	50.90593	173.17993				-865.16162	-43.18739	463.11374	-774.25812	-11.81573	199.70830	-876.17596	-78.55567	141.83234	-849.47711	-37.25790	599.73193	-845.42084	-33.36042	551.57233	-623.22754	-80.33985	156.85706	
